<?xml version="1.0" standalone="no"?>
<!DOCTYPE svg PUBLIC "-//W3C//DTD SVG 20010904//EN"
 "http://www.w3.org/TR/2001/REC-SVG-20010904/DTD/svg10.dtd">
<svg version="1.0" xmlns="http://www.w3.org/2000/svg"
 width="630.000000pt" height="630.000000pt" viewBox="0 0 630.000000 630.000000"
 preserveAspectRatio="xMidYMid meet">
<metadata>
Created by potrace 1.14, written by Peter Selinger 2001-2017
</metadata>
<g transform="translate(0.000000,630.000000) scale(0.100000,-0.100000)"
fill="#000000" stroke="none">
<path d="M3387 6084 c-4 -4 -145 -8 -314 -10 -423 -5 -674 -11 -680 -18 -4 -3
-12 -1 -20 5 -7 6 -13 7 -13 3 0 -5 -30 -10 -67 -10 -128 -3 -260 -11 -271
-18 -6 -3 -13 -2 -17 4 -4 6 -12 7 -18 3 -7 -4 -21 -8 -32 -9 -24 -2 -186 -15
-235 -20 -19 -2 -46 -5 -60 -8 -14 -3 -45 -8 -70 -10 -56 -7 -101 -15 -112
-22 -4 -3 -8 1 -8 8 0 8 -3 9 -8 3 -4 -5 -12 -11 -18 -12 -24 -4 -60 -12 -84
-18 -14 -4 -36 -8 -50 -9 -14 -2 -38 -9 -53 -15 -15 -6 -31 -10 -35 -9 -7 1
-18 -2 -60 -19 -9 -4 -21 -7 -27 -8 -5 0 -20 -6 -31 -13 -12 -6 -24 -8 -28 -5
-3 3 -6 1 -6 -5 0 -7 -3 -11 -7 -10 -5 1 -30 -9 -58 -22 -27 -12 -53 -22 -57
-22 -5 1 -8 -3 -8 -9 0 -5 -14 -15 -30 -20 -17 -6 -30 -15 -30 -20 0 -5 -6 -9
-14 -9 -22 0 -177 -157 -229 -232 -46 -66 -157 -275 -157 -297 0 -6 -5 -11
-11 -11 -5 0 -8 -4 -5 -9 3 -4 -6 -31 -19 -60 -14 -28 -25 -54 -25 -57 0 -4
-15 -45 -34 -93 -54 -139 -98 -255 -100 -268 -1 -7 -5 -16 -9 -19 -4 -4 -7
-16 -7 -26 0 -10 -4 -18 -8 -18 -5 0 -9 -6 -10 -12 -1 -21 -36 -113 -45 -119
-5 -3 -7 -8 -5 -10 4 -5 -53 -152 -61 -159 -3 -3 -7 -10 -8 -15 -1 -6 -4 -22
-8 -36 -6 -25 -5 -26 47 -29 29 -1 80 -3 113 -4 l60 -1 52 85 c29 47 57 90 62
96 5 7 7 15 4 18 -4 3 -1 6 5 6 6 0 14 10 18 23 6 20 24 49 98 164 12 18 24
33 29 33 4 0 7 6 7 14 0 23 171 189 245 238 99 64 200 115 249 125 11 2 24 7
30 12 12 9 57 22 94 27 13 1 30 8 38 15 11 9 14 9 14 0 0 -7 4 -9 10 -6 49 30
404 49 595 31 121 -11 110 -2 110 -97 0 -46 -4 -87 -10 -91 -7 -5 -7 -8 0 -8
6 0 9 -17 8 -37 -1 -21 -5 -92 -8 -158 -3 -66 -8 -140 -10 -165 -2 -25 -6 -85
-10 -135 -4 -49 -9 -108 -10 -130 -2 -22 -4 -40 -5 -40 -1 0 -3 -16 -5 -35 -5
-57 -15 -143 -19 -170 -5 -25 -11 -73 -22 -152 -3 -24 -9 -65 -14 -93 -5 -27
-12 -66 -14 -85 -8 -48 -16 -92 -21 -110 -2 -8 -7 -31 -11 -50 -8 -44 -12 -65
-14 -65 -1 0 -3 -11 -5 -25 -2 -14 -13 -63 -25 -110 -11 -47 -22 -94 -24 -105
-2 -11 -13 -50 -24 -87 -10 -37 -17 -70 -14 -73 3 -3 0 -5 -5 -5 -6 0 -10 -8
-8 -17 1 -10 -1 -22 -5 -28 -6 -8 -28 -72 -35 -105 0 -3 -9 -30 -20 -60 -11
-30 -19 -57 -20 -60 0 -3 -3 -9 -6 -15 -4 -5 -10 -25 -14 -42 -3 -18 -10 -33
-14 -33 -4 0 -7 -9 -8 -19 -1 -11 -11 -38 -22 -61 -11 -24 -18 -47 -15 -51 3
-5 0 -9 -5 -9 -6 0 -10 -3 -9 -7 0 -5 -8 -28 -20 -53 -21 -47 -54 -122 -57
-130 -4 -12 -51 -106 -60 -120 -5 -8 -10 -22 -12 -30 -1 -8 -7 -16 -12 -18 -6
-2 -11 -9 -11 -16 0 -7 -34 -70 -75 -141 -41 -70 -75 -130 -75 -131 0 -4 -63
-97 -70 -104 -3 -3 -11 -17 -19 -32 -8 -15 -21 -36 -30 -46 -27 -31 -61 -81
-61 -91 0 -5 -7 -12 -16 -15 -8 -3 -13 -10 -10 -15 4 -5 2 -11 -3 -13 -9 -3
-132 -167 -181 -240 -14 -21 -28 -38 -31 -38 -4 0 -12 -13 -19 -30 -7 -16 -16
-27 -21 -24 -5 3 -9 -4 -9 -15 0 -10 -3 -21 -7 -23 -28 -12 -119 -190 -144
-278 -20 -72 -20 -203 0 -280 20 -78 54 -170 63 -170 4 0 8 -5 8 -11 0 -18 84
-131 127 -169 21 -19 61 -50 88 -67 28 -18 55 -36 60 -40 11 -9 99 -42 130
-50 11 -3 27 -7 35 -10 38 -14 206 -24 225 -14 6 3 21 6 35 6 14 0 30 4 37 8
6 4 18 4 27 1 9 -3 16 -2 16 4 0 8 33 18 78 24 6 1 12 5 12 10 0 4 7 8 14 8
33 0 192 101 179 114 -3 3 -1 6 5 6 29 0 143 145 205 261 37 68 116 261 117
284 0 3 6 20 13 38 7 17 19 58 27 90 7 31 16 57 20 57 4 0 6 10 5 22 -1 13 0
28 4 33 3 6 6 18 7 28 1 9 2 18 4 20 3 4 11 41 13 64 1 13 4 23 7 23 3 0 7 12
8 28 2 26 5 43 17 94 3 13 7 39 10 58 2 19 4 35 5 35 2 0 7 25 14 72 3 21 8
49 10 63 3 14 8 45 11 70 6 49 14 101 20 140 6 37 18 152 19 178 1 12 3 22 6
22 3 0 6 21 8 48 2 42 7 77 12 92 1 3 2 23 2 45 0 22 5 43 11 47 9 6 8 8 -1 8
-7 0 -11 4 -8 9 3 5 8 33 11 62 3 30 8 74 11 99 3 25 6 64 7 87 1 24 4 43 7
43 3 0 5 19 6 43 0 23 4 74 7 112 15 146 20 201 21 242 1 24 3 43 6 43 3 0 6
21 7 48 3 73 10 170 18 247 4 39 8 88 10 110 2 22 4 40 5 40 1 0 3 29 5 65 5
88 14 195 15 195 1 0 3 20 5 45 4 63 15 198 20 240 2 19 6 71 10 115 3 44 7
96 10 115 2 19 7 73 10 120 3 47 8 99 10 115 2 17 7 68 10 115 4 47 8 103 11
125 2 22 6 69 9 105 16 204 26 294 31 299 3 3 302 5 664 6 467 0 661 -3 664
-11 4 -10 3 -34 -9 -204 -2 -36 -7 -103 -10 -150 -3 -47 -7 -107 -10 -135 -7
-82 -18 -218 -19 -242 0 -13 -2 -23 -5 -23 -4 0 -6 -21 -7 -48 0 -49 -14 -213
-29 -362 -3 -25 -7 -70 -10 -100 -3 -30 -8 -73 -10 -95 -2 -22 -7 -71 -11
-110 -3 -38 -8 -86 -10 -105 -2 -19 -6 -61 -9 -93 -2 -32 -7 -74 -9 -95 -3
-20 -8 -68 -11 -107 -3 -38 -8 -86 -10 -106 -3 -19 -8 -67 -10 -105 -3 -38 -7
-89 -10 -114 -6 -56 -13 -136 -20 -215 -3 -33 -8 -94 -12 -135 -3 -41 -7 -103
-7 -137 -1 -35 -3 -63 -6 -63 -3 0 -6 -19 -6 -43 -2 -42 -9 -167 -19 -307 -5
-75 -15 -283 -19 -395 -1 -33 3 -66 9 -74 7 -11 7 -13 -2 -8 -9 5 -11 -27 -8
-130 2 -76 6 -149 9 -163 2 -14 7 -47 11 -73 8 -62 10 -69 30 -142 9 -33 17
-66 18 -72 0 -7 3 -13 7 -13 3 0 6 -10 7 -21 1 -12 10 -38 19 -58 88 -189 143
-272 252 -378 75 -74 228 -183 257 -183 9 0 18 -6 21 -13 3 -8 10 -14 17 -14
7 -1 44 -13 82 -27 82 -30 191 -56 199 -48 3 3 6 1 6 -4 0 -5 10 -10 23 -10
12 -1 58 -4 103 -6 44 -2 85 -8 92 -12 7 -4 12 -4 12 1 0 10 71 10 88 -1 7 -4
12 -4 12 1 0 4 19 9 43 10 65 3 165 23 237 47 36 11 70 21 75 21 6 0 15 3 20
7 6 4 45 26 88 48 136 70 249 162 363 295 28 33 59 74 70 90 10 17 21 32 25
35 12 10 89 137 89 147 0 6 7 16 15 23 8 7 12 16 10 21 -3 4 3 12 12 18 10 5
17 11 15 13 -7 6 10 58 19 58 5 0 9 7 9 15 0 9 8 30 17 48 9 18 17 37 18 42 0
6 5 19 12 30 6 11 12 25 13 30 3 13 3 13 39 124 17 52 29 96 26 99 -2 3 0 12
5 22 5 9 11 28 14 41 2 13 9 43 14 66 5 23 7 44 4 48 -3 3 -1 5 4 5 5 0 9 15
10 33 0 17 4 48 7 67 4 19 10 76 13 125 3 50 7 96 9 103 3 9 -24 12 -117 12
-67 0 -118 -3 -115 -6 3 -4 2 -15 -4 -25 -7 -14 -6 -19 2 -19 8 0 8 -4 1 -13
-6 -7 -9 -25 -8 -40 2 -15 0 -27 -4 -27 -5 0 -7 -8 -5 -17 1 -10 0 -22 -3 -27
-3 -6 -7 -19 -8 -30 -1 -12 -5 -32 -8 -46 -4 -14 -9 -32 -11 -40 -2 -8 -4 -16
-5 -17 -2 -2 -3 -6 -5 -10 -1 -5 -8 -21 -15 -38 -7 -16 -14 -32 -16 -35 -1 -3
-5 -15 -9 -27 -4 -13 -11 -23 -16 -23 -5 0 -9 -6 -9 -13 0 -7 -24 -42 -52 -78
-54 -69 -126 -129 -188 -158 -19 -9 -36 -19 -38 -23 -2 -5 -12 -8 -21 -8 -10
0 -21 -3 -25 -7 -3 -4 -12 -8 -19 -9 -16 -3 -54 -11 -101 -23 -48 -12 -241
-12 -276 0 -14 5 -36 10 -50 12 -65 10 -182 73 -245 132 -52 49 -135 163 -139
191 -1 8 -8 20 -14 26 -7 7 -12 19 -12 28 0 8 -7 28 -15 43 -8 16 -16 38 -18
50 -2 12 -7 29 -10 37 -4 8 -8 29 -11 45 -2 17 -5 32 -7 35 -1 3 -3 10 -4 15
-2 6 -4 12 -5 15 -3 9 -9 44 -15 99 -8 74 -9 75 -20 83 -6 5 -6 8 1 8 7 0 10
12 7 28 -18 130 -16 672 3 704 5 7 3 8 -6 3 -9 -6 -11 -4 -6 4 5 7 10 42 12
79 4 68 8 119 19 247 3 39 8 93 10 120 16 189 18 205 29 263 3 12 0 22 -6 22
-7 0 -7 4 -1 13 6 6 9 20 8 29 -2 10 0 20 4 22 4 3 6 21 5 41 -2 20 1 47 6 61
7 18 7 23 -2 18 -7 -5 -8 -3 -3 6 9 14 10 26 20 135 3 39 8 95 12 125 3 30 6
71 7 90 1 19 5 41 9 48 5 7 4 12 -3 12 -7 0 -8 5 -3 13 4 6 9 26 10 42 1 17 3
56 4 88 2 32 7 61 11 63 4 3 3 15 -2 28 -5 13 -6 27 -3 30 7 6 10 45 16 162 2
33 7 65 11 72 4 7 2 12 -4 12 -6 0 -8 5 -4 12 7 12 12 79 17 258 2 53 6 101
11 108 4 6 3 12 -3 12 -10 0 -10 18 2 36 3 6 3 14 0 18 -10 10 -12 36 -3 36 5
0 5 14 0 30 -5 17 -6 31 -2 31 43 7 120 5 131 -4 10 -8 13 -8 8 -1 -7 13 590
13 611 0 7 -4 12 -3 12 2 0 7 81 9 115 2 6 -1 12 -1 15 0 15 6 120 4 120 -3 0
-5 5 -5 12 -1 17 11 58 11 58 1 0 -4 5 -5 11 -2 13 9 128 10 136 2 3 -4 14 -2
24 3 11 6 20 6 24 1 4 -8 58 0 69 11 1 2 10 -3 19 -10 11 -9 21 -11 33 -4 9 5
25 7 35 5 22 -6 21 -15 19 227 -1 80 -2 265 -3 412 -2 147 -6 270 -11 275 -4
4 -155 9 -334 10 -180 1 -679 4 -1110 6 -431 3 -785 7 -789 10 -3 4 -14 2 -24
-3 -11 -7 -27 -7 -43 0 -14 5 -27 6 -30 2 -4 -7 -54 -8 -81 -2 -5 1 -14 1 -20
0 -27 -6 -253 -5 -271 1 -11 4 -28 3 -38 -3 -11 -6 -21 -6 -30 1 -7 6 -16 8
-19 5z"/>
</g>
</svg>
